HIERARCHY
ROOT Hips
{
	OFFSET 0.000000 0.000000 0.000000
	CHANNELS 6 Xposition Yposition Zposition Xrotation Yrotation Zrotation
	JOINT LeftUpLeg_virtual
	{
		OFFSET 0.000000 0.000000 0.000000
		CHANNELS 3 Xrotation Yrotation Zrotation
		JOINT LeftUpLeg
		{
			OFFSET 13.026900 -6.336304 -1.092800
			CHANNELS 3 Xrotation Yrotation Zrotation
			JOINT LeftLeg
			{
				OFFSET 0.524474 -46.096886 9.782700
				CHANNELS 3 Xrotation Yrotation Zrotation
				JOINT LeftFoot
				{
					OFFSET -0.524474 -53.427422 -12.948200
					CHANNELS 3 Xrotation Yrotation Zrotation
					JOINT LeftToeBase
					{
						OFFSET 0.192200 -14.009700 16.364100
						CHANNELS 3 Xrotation Yrotation Zrotation
						JOINT LeftToe_End
						{
							OFFSET -1.784700 -0.561700 9.474800
							CHANNELS 3 Xrotation Yrotation Zrotation
							End Site
							{
								OFFSET 0 0 0
							}
						}
					}
				}
			}
		}
	}
	JOINT RightUpLeg_virtual
	{
		OFFSET 0.000000 0.000000 0.000000
		CHANNELS 3 Xrotation Yrotation Zrotation
		JOINT RightUpLeg
		{
			OFFSET -12.883000 -6.336304 -1.092800
			CHANNELS 3 Xrotation Yrotation Zrotation
			JOINT RightLeg
			{
				OFFSET -0.524587 -46.096825 9.782800
				CHANNELS 3 Xrotation Yrotation Zrotation
				JOINT RightFoot
				{
					OFFSET 0.524587 -53.427383 -12.948300
					CHANNELS 3 Xrotation Yrotation Zrotation
					JOINT RightToeBase
					{
						OFFSET -0.192200 -14.009700 16.364100
						CHANNELS 3 Xrotation Yrotation Zrotation
						JOINT RightToe_End
						{
							OFFSET 1.784700 -0.561700 9.474800
							CHANNELS 3 Xrotation Yrotation Zrotation
							End Site
							{
								OFFSET 0 0 0
							}
						}
					}
				}
			}
		}
	}
	JOINT Spine_virtual
	{
		OFFSET 0.000000 0.000000 0.000000
		CHANNELS 3 Xrotation Yrotation Zrotation
		JOINT Spine
		{
			OFFSET 0.072000 7.257294 -0.789700
			CHANNELS 3 Xrotation Yrotation Zrotation
			JOINT Spine1
			{
				OFFSET 0.000000 12.508769 -0.658067
				CHANNELS 3 Xrotation Yrotation Zrotation
				JOINT Spine1_split
				{
					OFFSET 0.000000 12.508769 -0.658067
					CHANNELS 3 Xrotation Yrotation Zrotation
					JOINT Spine2
					{
						OFFSET 0.000000 12.508769 -0.658067
						CHANNELS 3 Xrotation Yrotation Zrotation
						JOINT Neck_virtual
						{
							OFFSET 0.000000 0.000000 0.000000
							CHANNELS 3 Xrotation Yrotation Zrotation
							JOINT Neck
							{
								OFFSET 0.000000 14.033295 7.520400
								CHANNELS 3 Xrotation Yrotation Zrotation
								JOINT Head
								{
									OFFSET 0.000000 8.198502 5.703100
									CHANNELS 3 Xrotation Yrotation Zrotation
									JOINT HeadTop_End
									{
										OFFSET 0.000000 17.760803 13.332701
										CHANNELS 3 Xrotation Yrotation Zrotation
										End Site
										{
											OFFSET 0 0 0
										}
									}
								}
							}
						}
						JOINT LeftShoulder_virtual
						{
							OFFSET 0.000000 0.000000 0.000000
							CHANNELS 3 Xrotation Yrotation Zrotation
							JOINT LeftShoulder
							{
								OFFSET 6.292450 5.785301 -0.669000
								CHANNELS 3 Xrotation Yrotation Zrotation
								JOINT LeftShoulder_split
								{
									OFFSET 6.292450 5.785301 -0.669000
									CHANNELS 3 Xrotation Yrotation Zrotation
									JOINT LeftArm
									{
										OFFSET 13.907140 -6.093903 1.965100
										CHANNELS 3 Xrotation Yrotation Zrotation
										JOINT LeftForeArm
										{
											OFFSET 34.140198 0.000000 0.000000
											CHANNELS 3 Xrotation Yrotation Zrotation
											JOINT LeftHand
											{
												OFFSET 40.960209 0.000000 0.000000
												CHANNELS 3 Xrotation Yrotation Zrotation
												End Site
												{
													OFFSET 0 0 0
												}
											}
										}
									}
								}
							}
						}
						JOINT RightShoulder_virtual
						{
							OFFSET 0.000000 0.000000 0.000000
							CHANNELS 3 Xrotation Yrotation Zrotation
							JOINT RightShoulder
							{
								OFFSET -6.292450 5.785301 -0.669000
								CHANNELS 3 Xrotation Yrotation Zrotation
								JOINT RightShoulder_split
								{
									OFFSET -6.292450 5.785301 -0.669000
									CHANNELS 3 Xrotation Yrotation Zrotation
									JOINT RightArm
									{
										OFFSET -13.907140 -6.093903 1.965100
										CHANNELS 3 Xrotation Yrotation Zrotation
										JOINT RightForeArm
										{
											OFFSET -34.140198 0.000000 0.000000
											CHANNELS 3 Xrotation Yrotation Zrotation
											JOINT RightHand
											{
												OFFSET -40.960209 0.000000 0.000000
												CHANNELS 3 Xrotation Yrotation Zrotation
												End Site
												{
													OFFSET 0 0 0
												}
											}
										}
									}
								}
							}
						}
					}
				}
			}
		}
	}
}
MOTION
Frames: 9
Frame Time: 0.03333333
-0.681891 105.606560 7.221500 0.000000 0.000000 0.000000 -12.958395 -1.286602 -5.388268 -32.269939 20.439442 10.789523 41.347640 -8.766353 10.084854 0.663719 -8.295207 -0.234485 -1.018566 0.000002 0.000002 0.000000 0.000000 0.000000 -12.958395 -1.286602 -5.388268 -23.718144 -36.901832 -1.185792 38.835588 9.057808 -10.372441 -1.970512 7.900537 -6.147868 -0.000018 0.000002 -0.000002 0.000000 0.000000 0.000000 -12.958395 -1.286602 -5.388268 5.925569 -0.589434 3.014662 9.106088 -0.324704 -0.848842 0.000000 0.000000 0.000000 0.000000 0.000000 0.000000 9.111606 -0.022998 -0.851798 15.434441 0.560290 0.855191 -3.243829 0.523975 4.960276 0.000000 0.000000 0.000000 9.111606 -0.022998 -0.851798 0.689291 3.725265 -11.385278 0.000000 0.000000 0.000000 59.736937 -63.314679 -9.099191 0.000010 -20.467442 0.000025 0.000000 0.000000 0.000000 9.111606 -0.022998 -0.851798 1.381296 0.020058 11.778359 0.000000 0.000000 0.000000 9.839206 40.445320 56.843245 -0.000009 26.830954 0.000030 0.000000 0.000000 0.000000 
-0.689950 105.620293 7.234432 0.000000 0.000000 0.000000 -12.929261 -1.208514 -5.387634 -32.275335 20.406334 10.760289 41.322303 -8.769797 10.083997 0.678315 -8.310231 -0.218161 -1.031765 0.000003 -0.000001 0.000000 0.000000 0.000000 -12.929261 -1.208514 -5.387634 -23.720554 -36.969157 -1.205170 38.812331 9.059910 -10.371239 -1.983525 7.887609 -6.142680 -0.000018 0.000003 -0.000002 0.000000 0.000000 0.000000 -12.929261 -1.208514 -5.387634 5.918428 -0.589935 3.021520 9.098279 -0.328489 -0.866142 0.000000 0.000000 0.000000 0.000000 0.000000 0.000000 9.103879 -0.028798 -0.868353 15.411980 0.550057 0.886042 -3.321175 0.521828 4.868123 0.000000 0.000000 0.000000 9.103879 -0.028798 -0.868353 0.689443 3.729466 -11.390502 0.000000 0.000000 0.000000 59.511349 -63.261922 -9.286490 0.000011 -20.488100 0.000041 0.000000 0.000000 0.000000 9.103879 -0.028798 -0.868353 1.379337 0.009007 11.778239 0.000000 0.000000 0.000000 9.848079 40.481165 56.846681 -0.000001 26.857871 -0.000010 0.000000 0.000000 0.000000 
-0.698870 105.632561 7.248295 0.000000 0.000000 0.000000 -12.903983 -1.138957 -5.388925 -32.280184 20.376976 10.738153 41.301051 -8.772464 10.083080 0.689239 -8.325417 -0.202057 -1.044751 -0.000003 -0.000001 0.000000 0.000000 0.000000 -12.903983 -1.138957 -5.388925 -23.719727 -37.037394 -1.222186 38.791967 9.061691 -10.370163 -1.997327 7.880018 -6.140749 -0.000018 0.000002 -0.000002 0.000000 0.000000 0.000000 -12.903983 -1.138957 -5.388925 5.913002 -0.591564 3.028110 9.092751 -0.334137 -0.879477 0.000000 0.000000 0.000000 0.000000 0.000000 0.000000 9.098460 -0.036118 -0.880976 15.389695 0.540275 0.916376 -3.387414 0.520193 4.780244 0.000000 0.000000 0.000000 9.098460 -0.036118 -0.880976 0.689262 3.730461 -11.388657 0.000000 0.000000 0.000000 59.216292 -63.219391 -9.543452 0.000007 -20.491794 0.000007 0.000000 0.000000 0.000000 9.098460 -0.036118 -0.880976 1.377771 0.000539 11.774920 0.000000 0.000000 0.000000 9.850696 40.518113 56.852108 0.000007 26.876193 0.000017 0.000000 0.000000 0.000000 
-0.708116 105.643600 7.262753 0.000000 0.000000 0.000000 -12.882653 -1.075915 -5.391717 -32.284020 20.350699 10.721327 41.283798 -8.774660 10.082225 0.696952 -8.339650 -0.186413 -1.057864 0.000006 -0.000002 0.000000 0.000000 0.000000 -12.882653 -1.075915 -5.391717 -23.715460 -37.105221 -1.237043 38.773840 9.063537 -10.369184 -2.011556 7.875590 -6.140932 -0.000018 0.000002 -0.000002 0.000000 0.000000 0.000000 -12.882653 -1.075915 -5.391717 5.909300 -0.594493 3.034548 9.089676 -0.341986 -0.888690 0.000000 0.000000 0.000000 0.000000 0.000000 0.000000 9.095516 -0.045239 -0.889513 15.367733 0.531762 0.945649 -3.441947 0.522779 4.698530 0.000000 0.000000 0.000000 9.095516 -0.045239 -0.889513 0.688682 3.728788 -11.378841 0.000000 0.000000 0.000000 58.849361 -63.190847 -9.874605 0.000004 -20.472891 0.000007 0.000000 0.000000 0.000000 9.095516 -0.045239 -0.889513 1.376742 -0.004523 11.768822 0.000000 0.000000 0.000000 9.848462 40.558131 56.859067 0.000005 26.885312 0.000001 0.000000 0.000000 0.000000 
-0.716440 105.652596 7.277027 0.000000 0.000000 0.000000 -12.866080 -1.018554 -5.395529 -32.285901 20.326110 10.707410 41.271247 -8.776617 10.081340 0.701750 -8.350131 -0.170480 -1.071363 0.000001 0.000003 0.000000 0.000000 0.000000 -12.866080 -1.018554 -5.395529 -23.710269 -37.176255 -1.254189 38.759558 9.065689 -10.368143 -2.026032 7.877905 -6.143783 -0.000018 0.000002 -0.000002 0.000000 0.000000 0.000000 -12.866080 -1.018554 -5.395529 5.907671 -0.599031 3.040422 9.089451 -0.352525 -0.893490 0.000000 0.000000 0.000000 0.000000 0.000000 0.000000 9.095486 -0.056506 -0.893683 15.346165 0.526141 0.972961 -3.483868 0.536705 4.627201 0.000000 0.000000 0.000000 9.095486 -0.056506 -0.893683 0.687501 3.724915 -11.357975 0.000000 0.000000 0.000000 58.404893 -63.178779 -10.288792 -0.000005 -20.429096 0.000018 0.000000 0.000000 0.000000 9.095486 -0.056506 -0.893683 1.376435 -0.005347 11.761293 0.000000 0.000000 0.000000 9.846472 40.606335 56.863108 0.000005 26.883459 -0.000012 0.000000 0.000000 0.000000 
-0.722526 105.658875 7.290424 0.000000 0.000000 0.000000 -12.854349 -0.964247 -5.399839 -32.285768 20.300507 10.693089 41.264683 -8.778901 10.080402 0.703919 -8.353402 -0.154149 -1.085664 0.000002 0.000001 0.000000 0.000000 0.000000 -12.854349 -0.964247 -5.399839 -23.706644 -37.250738 -1.276467 38.750887 9.068351 -10.366998 -2.041091 7.885697 -6.148351 -0.000018 0.000000 -0.000002 0.000000 0.000000 0.000000 -12.854349 -0.964247 -5.399839 5.908232 -0.605518 3.046109 9.092144 -0.366364 -0.893972 0.000000 0.000000 0.000000 0.000000 0.000000 0.000000 9.098417 -0.070448 -0.893589 15.324894 0.524880 0.997658 -3.513047 0.569328 4.568412 0.000000 0.000000 0.000000 9.098417 -0.070448 -0.893589 0.685564 3.720520 -11.324689 0.000000 0.000000 0.000000 57.886290 -63.183457 -10.785683 0.000004 -20.360948 0.000035 0.000000 0.000000 0.000000 9.098417 -0.070448 -0.893589 1.377105 -0.000482 11.752879 0.000000 0.000000 0.000000 9.850615 40.666861 56.859836 0.000009 26.869947 -0.000023 0.000000 0.000000 0.000000 
-0.725430 105.661400 7.302567 0.000000 0.000000 0.000000 -12.846417 -0.908899 -5.403886 -32.284757 20.270985 10.674541 41.265503 -8.781094 10.079692 0.703780 -8.347758 -0.136430 -1.101098 0.000003 -0.000001 0.000000 0.000000 0.000000 -12.846417 -0.908899 -5.403886 -23.707037 -37.324436 -1.304276 38.749719 9.071194 -10.365843 -2.057789 7.891913 -6.152257 -0.000018 0.000002 -0.000002 0.000000 0.000000 0.000000 -12.846417 -0.908899 -5.403886 5.910788 -0.614307 3.052800 9.097359 -0.384194 -0.890354 0.000000 0.000000 0.000000 0.000000 0.000000 0.000000 9.103934 -0.087765 -0.889465 15.303879 0.528869 1.019292 -3.530410 0.626110 4.521813 0.000000 0.000000 0.000000 9.103934 -0.087765 -0.889465 0.682850 3.718142 -11.280312 0.000000 0.000000 0.000000 57.304850 -63.202520 -11.355869 -0.000023 -20.271011 -0.000012 0.000000 0.000000 0.000000 9.103934 -0.087765 -0.889465 1.379087 0.012059 11.742641 0.000000 0.000000 0.000000 9.865249 40.739377 56.846124 0.000011 26.846181 -0.000002 0.000000 0.000000 0.000000 
-0.724774 105.661354 7.313206 0.000000 0.000000 0.000000 -12.840336 -0.848019 -5.406650 -32.282858 20.236566 10.648606 41.270790 -8.783803 10.078884 0.703590 -8.334061 -0.116262 -1.117801 0.000002 -0.000001 0.000000 0.000000 0.000000 -12.840336 -0.848019 -5.406650 -23.711301 -37.389282 -1.334872 38.754517 9.074118 -10.364615 -2.076378 7.884892 -6.151762 -0.000018 0.000002 -0.000002 0.000000 0.000000 0.000000 -12.840336 -0.848019 -5.406650 5.914838 -0.625728 3.062559 9.104295 -0.406689 -0.882669 0.000000 0.000000 0.000000 0.000000 0.000000 0.000000 9.111250 -0.109239 -0.881373 15.283067 0.538126 1.037539 -3.537682 0.708482 4.484934 0.000000 0.000000 0.000000 9.111250 -0.109239 -0.881373 0.679503 3.720383 -11.229004 0.000000 0.000000 0.000000 56.677637 -63.233475 -11.982466 0.000003 -20.159718 0.000026 0.000000 0.000000 0.000000 9.111250 -0.109239 -0.881373 1.382649 0.034316 11.727987 0.000000 0.000000 0.000000 9.890859 40.817712 56.822400 0.000016 26.815760 -0.000023 0.000000 0.000000 0.000000 
-0.720534 105.659744 7.322479 0.000000 0.000000 0.000000 -12.833749 -0.778285 -5.407709 -32.281745 20.198464 10.614626 41.278327 -8.786944 10.078078 0.704772 -8.316075 -0.093053 -1.135163 0.000004 -0.000001 0.000000 0.000000 0.000000 -12.833749 -0.778285 -5.407709 -23.717439 -37.435505 -1.362405 38.762451 9.076715 -10.363494 -2.096833 7.851505 -6.143048 -0.000018 0.000000 -0.000002 0.000000 0.000000 0.000000 -12.833749 -0.778285 -5.407709 5.919551 -0.639942 3.078263 9.111863 -0.434290 -0.870557 0.000000 0.000000 0.000000 0.000000 0.000000 0.000000 9.119275 -0.135483 -0.868980 15.262462 0.551697 1.052156 -3.537946 0.812653 4.454320 0.000000 0.000000 0.000000 9.119275 -0.135483 -0.868980 0.675833 3.728906 -11.176964 0.000000 0.000000 0.000000 56.024746 -63.274633 -12.644217 0.000008 -20.023917 0.000031 0.000000 0.000000 0.000000 9.119275 -0.135483 -0.868980 1.387921 0.067500 11.705606 0.000000 0.000000 0.000000 9.923893 40.890280 56.791606 0.000011 26.784324 -0.000020 0.000000 0.000000 0.000000 
